<svg width="44" height="44" viewBox="0 0 44 44" fill="none" xmlns="http://www.w3.org/2000/svg">
<g id="delete">
<circle id="Ellipse 62" opacity="0.05" cx="22.1978" cy="21.8023" r="21.8023" fill="#FF0000"/>
<g id="Delete">
<path id="Delete_2" fill-rule="evenodd" clip-rule="evenodd" d="M27.7727 16.9438C28.0617 16.9438 28.3023 17.1838 28.3023 17.4891V17.7714C28.3023 18.0693 28.0617 18.3167 27.7727 18.3167H15.4605C15.1708 18.3167 14.9302 18.0693 14.9302 17.7714V17.4891C14.9302 17.1838 15.1708 16.9438 15.4605 16.9438H17.6266C18.0666 16.9438 18.4495 16.6311 18.5485 16.1898L18.6619 15.6832C18.8382 14.993 19.4184 14.5347 20.0823 14.5347H23.1501C23.8069 14.5347 24.3935 14.993 24.5633 15.6468L24.6847 16.1891C24.783 16.6311 25.1659 16.9438 25.6066 16.9438H27.7727ZM26.6721 27.2632C26.8983 25.1556 27.2942 20.1486 27.2942 20.0981C27.3087 19.945 27.2588 19.8002 27.1598 19.6835C27.0536 19.5743 26.9192 19.5097 26.7711 19.5097H16.4668C16.3179 19.5097 16.1763 19.5743 16.0781 19.6835C15.9784 19.8002 15.9292 19.945 15.9365 20.0981C15.9378 20.1073 15.952 20.2837 15.9757 20.5786C16.0813 21.8885 16.3751 25.5368 16.565 27.2632C16.6994 28.535 17.5339 29.3344 18.7427 29.3633C19.6754 29.3849 20.6363 29.3923 21.6189 29.3923C22.5445 29.3923 23.4845 29.3849 24.4461 29.3633C25.6968 29.3418 26.5305 28.5566 26.6721 27.2632Z" fill="#FF0000"/>
</g>
</g>
</svg>
