<svg width="44" height="44" viewBox="0 0 44 44" fill="none" xmlns="http://www.w3.org/2000/svg">
<g id="edit">
<circle id="Ellipse 61" opacity="0.1" cx="21.8023" cy="21.8023" r="21.8023" fill="#5D5FEF"/>
<g id="Edit">
<path id="Edit_2" fill-rule="evenodd" clip-rule="evenodd" d="M20.1074 26.988L25.7834 19.6479C26.0918 19.2521 26.2015 18.7944 26.0987 18.3285C26.0096 17.9049 25.7491 17.5021 25.3583 17.1966L24.4055 16.4396C23.576 15.7799 22.5478 15.8494 21.9583 16.6063L21.3207 17.4334C21.2385 17.5368 21.259 17.6896 21.3619 17.7729C21.3619 17.7729 22.9728 19.0646 23.0071 19.0923C23.1168 19.1965 23.199 19.3354 23.2196 19.5021C23.2539 19.8284 23.0276 20.134 22.6917 20.1756C22.5341 20.1965 22.3833 20.1479 22.2736 20.0576L20.5804 18.7104C20.4981 18.6486 20.3747 18.6618 20.3062 18.7451L16.2823 23.9533C16.0218 24.2797 15.9327 24.7033 16.0218 25.113L16.5359 27.3421C16.5634 27.4602 16.6662 27.5435 16.7896 27.5435L19.0517 27.5157C19.463 27.5088 19.8469 27.3213 20.1074 26.988ZM23.2749 26.294H26.9636C27.3235 26.294 27.6162 26.5906 27.6162 26.9551C27.6162 27.3204 27.3235 27.6162 26.9636 27.6162H23.2749C22.915 27.6162 22.6223 27.3204 22.6223 26.9551C22.6223 26.5906 22.915 26.294 23.2749 26.294Z" fill="#5D5FEF"/>
</g>
</g>
</svg>
