<svg width="40" height="40" viewBox="0 0 40 40" fill="none" xmlns="http://www.w3.org/2000/svg">
<circle cx="20" cy="20" r="20" fill="#FFF6EF"/>
<path d="M22.8 12.6129L29.501 23.7739C30.464 25.3769 29.991 27.4859 28.444 28.4839C27.9251 28.8207 27.3197 29 26.701 28.9999H13.298C11.477 28.9999 10 27.4699 10 25.5809C10 24.9419 10.173 24.3169 10.498 23.7739L17.2 12.6129C18.162 11.0099 20.196 10.5189 21.743 11.5169C22.171 11.7929 22.533 12.1679 22.8 12.6129ZM20 24.9999C20.2652 24.9999 20.5196 24.8945 20.7071 24.707C20.8946 24.5194 21 24.2651 21 23.9999C21 23.7346 20.8946 23.4803 20.7071 23.2928C20.5196 23.1052 20.2652 22.9999 20 22.9999C19.7348 22.9999 19.4804 23.1052 19.2929 23.2928C19.1054 23.4803 19 23.7346 19 23.9999C19 24.2651 19.1054 24.5194 19.2929 24.707C19.4804 24.8945 19.7348 24.9999 20 24.9999ZM20 15.9999C19.7348 15.9999 19.4804 16.1052 19.2929 16.2928C19.1054 16.4803 19 16.7346 19 16.9999V20.9999C19 21.2651 19.1054 21.5194 19.2929 21.707C19.4804 21.8945 19.7348 21.9999 20 21.9999C20.2652 21.9999 20.5196 21.8945 20.7071 21.707C20.8946 21.5194 21 21.2651 21 20.9999V16.9999C21 16.7346 20.8946 16.4803 20.7071 16.2928C20.5196 16.1052 20.2652 15.9999 20 15.9999Z" fill="#F6A871"/>
</svg>
