<svg width="40" height="40" viewBox="0 0 40 40" fill="none" xmlns="http://www.w3.org/2000/svg">
<circle cx="20" cy="20" r="20" fill="#E5F6FA"/>
<g clip-path="url(#clip0_369_560)">
<path fill-rule="evenodd" clip-rule="evenodd" d="M21.7023 9.14584H23.631C24.4546 9.14582 25.1414 9.1458 25.6866 9.2191C26.2621 9.29647 26.7816 9.46667 27.1992 9.88418C27.6167 10.3017 27.7869 10.8213 27.8642 11.3967C27.9375 11.942 27.9375 12.6287 27.9375 13.4524V27.4792H28.1667C28.5464 27.4792 28.8542 27.787 28.8542 28.1667C28.8542 28.5464 28.5464 28.8542 28.1667 28.8542H9.83333C9.45363 28.8542 9.14583 28.5464 9.14583 28.1667C9.14583 27.787 9.45363 27.4792 9.83333 27.4792H10.0625L10.0625 16.2023C10.0625 15.3787 10.0624 14.692 10.1357 14.1467C10.2131 13.5713 10.3833 13.0517 10.8008 12.6342C11.2183 12.2167 11.7379 12.0465 12.3134 11.9691C12.8586 11.8958 13.5454 11.8958 14.369 11.8958L17.4215 11.8958C17.4686 11.0945 17.6164 10.402 18.1342 9.88418C18.5517 9.46667 19.0712 9.29647 19.6467 9.2191C20.1919 9.1458 20.8787 9.14582 21.7023 9.14584ZM18.0896 13.2708C18.0884 13.2708 18.0872 13.2708 18.0861 13.2708C18.0851 13.2708 18.0842 13.2708 18.0833 13.2708H14.4167C13.533 13.2708 12.9394 13.2723 12.4966 13.3318C12.0736 13.3887 11.8926 13.487 11.7731 13.6065C11.6536 13.7259 11.5554 13.9069 11.4985 14.33C11.439 14.7727 11.4375 15.3663 11.4375 16.25V27.4792H15.5625V25.4167C15.5625 25.037 15.8703 24.7292 16.25 24.7292C16.6297 24.7292 16.9375 25.037 16.9375 25.4167V27.4792H21.0625V16.25C21.0625 15.3663 21.061 14.7727 21.0015 14.33C20.9446 13.9069 20.8463 13.7259 20.7269 13.6065C20.6074 13.487 20.4264 13.3887 20.0034 13.3318C19.5616 13.2724 18.9698 13.2709 18.0896 13.2708ZM22.4375 27.4792L22.4375 16.2024C22.4375 15.3787 22.4375 14.692 22.3642 14.1467C22.2869 13.5713 22.1167 13.0517 21.6992 12.6342C21.2816 12.2167 20.7621 12.0465 20.1866 11.9691C19.7967 11.9167 19.3344 11.9018 18.8014 11.8975C18.8474 11.2562 18.9483 11.0146 19.1064 10.8565C19.2259 10.737 19.4069 10.6387 19.8299 10.5818C20.2727 10.5223 20.8663 10.5208 21.75 10.5208H23.5833C24.467 10.5208 25.0606 10.5223 25.5034 10.5818C25.9264 10.6387 26.1074 10.737 26.2269 10.8565C26.3463 10.9759 26.4446 11.1569 26.5015 11.58C26.561 12.0227 26.5625 12.6163 26.5625 13.5V27.4792H22.4375ZM12.8125 15.3333C12.8125 14.9536 13.1203 14.6458 13.5 14.6458H19C19.3797 14.6458 19.6875 14.9536 19.6875 15.3333C19.6875 15.713 19.3797 16.0208 19 16.0208H13.5C13.1203 16.0208 12.8125 15.713 12.8125 15.3333ZM12.8125 18.0833C12.8125 17.7037 13.1203 17.3958 13.5 17.3958H19C19.3797 17.3958 19.6875 17.7037 19.6875 18.0833C19.6875 18.463 19.3797 18.7708 19 18.7708H13.5C13.1203 18.7708 12.8125 18.463 12.8125 18.0833ZM12.8125 20.8333C12.8125 20.4537 13.1203 20.1458 13.5 20.1458H19C19.3797 20.1458 19.6875 20.4537 19.6875 20.8333C19.6875 21.213 19.3797 21.5208 19 21.5208H13.5C13.1203 21.5208 12.8125 21.213 12.8125 20.8333Z" fill="#57C7E0"/>
</g>
<defs>
<clipPath id="clip0_369_560">
<rect width="22" height="22" fill="white" transform="translate(8 8)"/>
</clipPath>
</defs>
</svg>
