<svg width="40" height="40" viewBox="0 0 40 40" fill="none" xmlns="http://www.w3.org/2000/svg">
<circle cx="20" cy="20" r="20" fill="#FDEEE2"/>
<g clip-path="url(#clip0_369_534)">
<path d="M18.7813 11.8908C19.3452 11.4102 19.6271 11.17 19.9219 11.0291C20.6037 10.7032 21.3963 10.7032 22.0781 11.0291C22.3729 11.17 22.6548 11.4102 23.2187 11.8908C23.4431 12.082 23.5553 12.1776 23.6752 12.258C23.9499 12.4421 24.2584 12.5699 24.5828 12.6339C24.7244 12.6619 24.8713 12.6736 25.1653 12.6971C25.9038 12.756 26.273 12.7855 26.5811 12.8943C27.2936 13.1459 27.8541 13.7064 28.1058 14.4189C28.2146 14.727 28.244 15.0962 28.303 15.8348C28.3264 16.1287 28.3381 16.2756 28.3661 16.4172C28.4301 16.7416 28.5579 17.0501 28.7421 17.3249C28.8224 17.4447 28.918 17.5569 29.1093 17.7813C29.5898 18.3452 29.8301 18.6271 29.971 18.9219C30.2968 19.6037 30.2968 20.3963 29.971 21.0781C29.8301 21.3729 29.5898 21.6548 29.1093 22.2187C28.918 22.4431 28.8224 22.5553 28.7421 22.6752C28.5579 22.9499 28.4301 23.2584 28.3661 23.5828C28.3381 23.7244 28.3264 23.8713 28.303 24.1653C28.244 24.9038 28.2146 25.273 28.1058 25.5811C27.8541 26.2936 27.2936 26.8541 26.5811 27.1058C26.273 27.2146 25.9038 27.244 25.1653 27.303C24.8713 27.3264 24.7244 27.3381 24.5828 27.3661C24.2584 27.4301 23.9499 27.5579 23.6752 27.7421C23.5553 27.8224 23.4431 27.918 23.2187 28.1093C22.6548 28.5898 22.3729 28.8301 22.0781 28.971C21.3963 29.2968 20.6037 29.2968 19.9219 28.971C19.6271 28.8301 19.3452 28.5898 18.7813 28.1093C18.5569 27.918 18.4447 27.8224 18.3249 27.7421C18.0501 27.5579 17.7416 27.4301 17.4172 27.3661C17.2756 27.3381 17.1287 27.3264 16.8348 27.303C16.0962 27.244 15.727 27.2146 15.4189 27.1058C14.7064 26.8541 14.1459 26.2936 13.8943 25.5811C13.7855 25.273 13.756 24.9038 13.6971 24.1653C13.6736 23.8713 13.6619 23.7244 13.6339 23.5828C13.5699 23.2584 13.4421 22.9499 13.258 22.6752C13.1776 22.5553 13.082 22.4431 12.8908 22.2187C12.4102 21.6548 12.17 21.3729 12.0291 21.0781C11.7032 20.3963 11.7032 19.6037 12.0291 18.9219C12.17 18.6271 12.4102 18.3452 12.8908 17.7813C13.082 17.5569 13.1776 17.4447 13.258 17.3249C13.4421 17.0501 13.5699 16.7416 13.6339 16.4172C13.6619 16.2756 13.6736 16.1287 13.6971 15.8348C13.756 15.0962 13.7855 14.727 13.8943 14.4189C14.1459 13.7064 14.7064 13.1459 15.4189 12.8943C15.727 12.7855 16.0962 12.756 16.8348 12.6971C17.1287 12.6736 17.2756 12.6619 17.4172 12.6339C17.7416 12.5699 18.0501 12.4421 18.3249 12.258C18.4447 12.1776 18.5569 12.082 18.7813 11.8908Z" stroke="#F48635" stroke-width="1.5"/>
<path d="M18 23L24 17" stroke="#F48635" stroke-width="1.5" stroke-linecap="round"/>
<path d="M24.5 22.5C24.5 23.0523 24.0523 23.5 23.5 23.5C22.9477 23.5 22.5 23.0523 22.5 22.5C22.5 21.9477 22.9477 21.5 23.5 21.5C24.0523 21.5 24.5 21.9477 24.5 22.5Z" fill="#F48635"/>
<path d="M19.5 17.5C19.5 18.0523 19.0523 18.5 18.5 18.5C17.9477 18.5 17.5 18.0523 17.5 17.5C17.5 16.9477 17.9477 16.5 18.5 16.5C19.0523 16.5 19.5 16.9477 19.5 17.5Z" fill="#F48635"/>
</g>
<defs>
<clipPath id="clip0_369_534">
<rect width="22" height="22" fill="white" transform="translate(9 10)"/>
</clipPath>
</defs>
</svg>
