<svg width="40" height="40" viewBox="0 0 40 40" fill="none" xmlns="http://www.w3.org/2000/svg">
<circle cx="20" cy="20" r="20" fill="#EAECF5"/>
<path fill-rule="evenodd" clip-rule="evenodd" d="M21.3702 11.9712C20.5888 11.2765 19.4112 11.2765 18.6297 11.9712L13.1297 16.8601C12.6894 17.2514 12.4375 17.8125 12.4375 18.4016V27.4792H13.8125L13.8125 22.619C13.8125 21.7954 13.8124 21.1086 13.8857 20.5634C13.9631 19.9879 14.1333 19.4683 14.5508 19.0508C14.9683 18.6333 15.4879 18.4631 16.0634 18.3857C16.6086 18.3124 17.2954 18.3125 18.119 18.3125H21.881C22.7046 18.3125 23.3914 18.3124 23.9366 18.3857C24.5121 18.4631 25.0316 18.6333 25.4491 19.0508C25.8667 19.4683 26.0369 19.9879 26.1142 20.5634C26.1875 21.1086 26.1875 21.7954 26.1875 22.619V27.4792H27.5625V18.4016C27.5625 17.8125 27.3105 17.2514 26.8702 16.8601L21.3702 11.9712ZM28.9375 27.4792V18.4016C28.9375 17.4197 28.5176 16.4847 27.7837 15.8324L22.2837 10.9435C20.9813 9.78577 19.0186 9.78577 17.7162 10.9435L12.2162 15.8324C11.4824 16.4847 11.0625 17.4197 11.0625 18.4016V27.4792H10.8333C10.4536 27.4792 10.1458 27.787 10.1458 28.1667C10.1458 28.5463 10.4536 28.8542 10.8333 28.8542H29.1666C29.5463 28.8542 29.8541 28.5463 29.8541 28.1667C29.8541 27.787 29.5463 27.4792 29.1666 27.4792H28.9375ZM24.8125 27.4792V22.6667C24.8125 21.783 24.811 21.1894 24.7515 20.7466C24.6946 20.3236 24.5963 20.1425 24.4769 20.0231C24.3574 19.9036 24.1764 19.8053 23.7534 19.7485C23.3106 19.6889 22.717 19.6875 21.8333 19.6875H18.1666C17.283 19.6875 16.6894 19.6889 16.2466 19.7485C15.8236 19.8053 15.6425 19.9036 15.5231 20.0231C15.4036 20.1425 15.3053 20.3236 15.2485 20.7466C15.1889 21.1894 15.1875 21.783 15.1875 22.6667V27.4792H24.8125ZM17.4791 16.25C17.4791 15.8703 17.787 15.5625 18.1666 15.5625H21.8333C22.213 15.5625 22.5208 15.8703 22.5208 16.25C22.5208 16.6297 22.213 16.9375 21.8333 16.9375H18.1666C17.787 16.9375 17.4791 16.6297 17.4791 16.25ZM16.5625 22.2083C16.5625 21.8286 16.8703 21.5208 17.25 21.5208H22.75C23.1297 21.5208 23.4375 21.8286 23.4375 22.2083C23.4375 22.588 23.1297 22.8958 22.75 22.8958H17.25C16.8703 22.8958 16.5625 22.588 16.5625 22.2083ZM16.5625 24.9583C16.5625 24.5786 16.8703 24.2708 17.25 24.2708H22.75C23.1297 24.2708 23.4375 24.5786 23.4375 24.9583C23.4375 25.338 23.1297 25.6458 22.75 25.6458H17.25C16.8703 25.6458 16.5625 25.338 16.5625 24.9583Z" fill="#7081BE"/>
</svg>
