<svg width="40" height="40" viewBox="0 0 40 40" fill="none" xmlns="http://www.w3.org/2000/svg">
<circle cx="20" cy="20" r="20" fill="#E3FFF5"/>
<g clip-path="url(#clip0_1695_54)">
<path d="M18.75 22.5859C18.75 22.2344 18.7256 21.9072 18.6768 21.6045C18.6279 21.3018 18.5482 21.0088 18.4375 20.7256C18.3268 20.4424 18.1608 20.2194 17.9395 20.0566C17.7181 19.8939 17.4544 19.8125 17.1484 19.8125C16.7318 20.2292 16.224 20.4375 15.625 20.4375C15.026 20.4375 14.5182 20.2292 14.1016 19.8125C13.7956 19.8125 13.5319 19.8939 13.3105 20.0566C13.0892 20.2194 12.9232 20.4424 12.8125 20.7256C12.7018 21.0088 12.6221 21.3018 12.5732 21.6045C12.5244 21.9072 12.5 22.2344 12.5 22.5859C12.5 22.944 12.6025 23.2484 12.8076 23.499C13.0127 23.7497 13.2585 23.875 13.5449 23.875H17.7051C17.9915 23.875 18.2373 23.7497 18.4424 23.499C18.6475 23.2484 18.75 22.944 18.75 22.5859ZM17.5 18.25C17.5 17.7292 17.3177 17.2865 16.9531 16.9219C16.5885 16.5573 16.1458 16.375 15.625 16.375C15.1042 16.375 14.6615 16.5573 14.2969 16.9219C13.9323 17.2865 13.75 17.7292 13.75 18.25C13.75 18.7708 13.9323 19.2135 14.2969 19.5781C14.6615 19.9427 15.1042 20.125 15.625 20.125C16.1458 20.125 16.5885 19.9427 16.9531 19.5781C17.3177 19.2135 17.5 18.7708 17.5 18.25ZM27.5 22.9375V22.3125C27.5 22.2214 27.4707 22.1465 27.4121 22.0879C27.3535 22.0293 27.2786 22 27.1875 22H20.3125C20.2214 22 20.1465 22.0293 20.0879 22.0879C20.0293 22.1465 20 22.2214 20 22.3125V22.9375C20 23.0286 20.0293 23.1035 20.0879 23.1621C20.1465 23.2207 20.2214 23.25 20.3125 23.25H27.1875C27.2786 23.25 27.3535 23.2207 27.4121 23.1621C27.4707 23.1035 27.5 23.0286 27.5 22.9375ZM23.75 20.4375V19.8125C23.75 19.7214 23.7207 19.6465 23.6621 19.5879C23.6035 19.5293 23.5286 19.5 23.4375 19.5H20.3125C20.2214 19.5 20.1465 19.5293 20.0879 19.5879C20.0293 19.6465 20 19.7214 20 19.8125V20.4375C20 20.5286 20.0293 20.6035 20.0879 20.6621C20.1465 20.7207 20.2214 20.75 20.3125 20.75H23.4375C23.5286 20.75 23.6035 20.7207 23.6621 20.6621C23.7207 20.6035 23.75 20.5286 23.75 20.4375ZM27.5 20.4375V19.8125C27.5 19.7214 27.4707 19.6465 27.4121 19.5879C27.3535 19.5293 27.2786 19.5 27.1875 19.5H25.3125C25.2214 19.5 25.1465 19.5293 25.0879 19.5879C25.0293 19.6465 25 19.7214 25 19.8125V20.4375C25 20.5286 25.0293 20.6035 25.0879 20.6621C25.1465 20.7207 25.2214 20.75 25.3125 20.75H27.1875C27.2786 20.75 27.3535 20.7207 27.4121 20.6621C27.4707 20.6035 27.5 20.5286 27.5 20.4375ZM27.5 17.9375V17.3125C27.5 17.2214 27.4707 17.1465 27.4121 17.0879C27.3535 17.0293 27.2786 17 27.1875 17H20.3125C20.2214 17 20.1465 17.0293 20.0879 17.0879C20.0293 17.1465 20 17.2214 20 17.3125V17.9375C20 18.0286 20.0293 18.1035 20.0879 18.1621C20.1465 18.2207 20.2214 18.25 20.3125 18.25H27.1875C27.2786 18.25 27.3535 18.2207 27.4121 18.1621C27.4707 18.1035 27.5 18.0286 27.5 17.9375ZM11.25 14.5H28.75V13.5625C28.75 13.4714 28.7207 13.3965 28.6621 13.3379C28.6035 13.2793 28.5286 13.25 28.4375 13.25H11.5625C11.4714 13.25 11.3965 13.2793 11.3379 13.3379C11.2793 13.3965 11.25 13.4714 11.25 13.5625V14.5ZM30 13.5625V25.4375C30 25.8672 29.847 26.235 29.541 26.541C29.235 26.847 28.8672 27 28.4375 27H11.5625C11.1328 27 10.765 26.847 10.459 26.541C10.153 26.235 10 25.8672 10 25.4375V13.5625C10 13.1328 10.153 12.765 10.459 12.459C10.765 12.153 11.1328 12 11.5625 12H28.4375C28.8672 12 29.235 12.153 29.541 12.459C29.847 12.765 30 13.1328 30 13.5625Z" fill="#22C58B"/>
</g>
<defs>
<clipPath id="clip0_1695_54">
<rect width="20" height="15" fill="white" transform="translate(10 12)"/>
</clipPath>
</defs>
</svg>
